<mxfile host="app.diagrams.net" modified="2022-05-12T12:14:51.063Z" agent="5.0 (Windows)" etag="O_zlULoMDIfcCO9GsZ9r" version="18.0.3" type="github">
  <diagram id="86LWPGzjrzok_drfQPmZ" name="Page-1">
    <mxGraphModel dx="1856" dy="977" grid="0" gridSize="10" guides="1" tooltips="1" connect="1" arrows="1" fold="1" page="1" pageScale="1" pageWidth="675" pageHeight="459" math="0" shadow="0">
      <root>
        <mxCell id="0" />
        <mxCell id="1" parent="0" />
        <mxCell id="ViR2Tt4yyh8v6bLRr8B0-2" value="" style="ellipse;whiteSpace=wrap;html=1;aspect=fixed;" parent="1" vertex="1">
          <mxGeometry x="183" y="33" width="80" height="80" as="geometry" />
        </mxCell>
        <mxCell id="ViR2Tt4yyh8v6bLRr8B0-4" value="" style="rounded=0;whiteSpace=wrap;html=1;" parent="1" vertex="1">
          <mxGeometry x="504" y="153" width="80" height="120" as="geometry" />
        </mxCell>
        <mxCell id="ViR2Tt4yyh8v6bLRr8B0-5" value="" style="rounded=0;whiteSpace=wrap;html=1;" parent="1" vertex="1">
          <mxGeometry x="85" y="153" width="80" height="120" as="geometry" />
        </mxCell>
        <mxCell id="ViR2Tt4yyh8v6bLRr8B0-6" value="" style="triangle;whiteSpace=wrap;html=1;rotation=-180;" parent="1" vertex="1">
          <mxGeometry x="218" y="353" width="40" height="40" as="geometry" />
        </mxCell>
        <mxCell id="ViR2Tt4yyh8v6bLRr8B0-7" value="" style="triangle;whiteSpace=wrap;html=1;" parent="1" vertex="1">
          <mxGeometry x="178" y="353" width="40" height="40" as="geometry" />
        </mxCell>
        <mxCell id="ViR2Tt4yyh8v6bLRr8B0-8" value="" style="triangle;whiteSpace=wrap;html=1;rotation=-180;" parent="1" vertex="1">
          <mxGeometry x="464" y="353" width="40" height="40" as="geometry" />
        </mxCell>
        <mxCell id="ViR2Tt4yyh8v6bLRr8B0-9" value="" style="triangle;whiteSpace=wrap;html=1;" parent="1" vertex="1">
          <mxGeometry x="424" y="353" width="40" height="40" as="geometry" />
        </mxCell>
        <mxCell id="ViR2Tt4yyh8v6bLRr8B0-11" value="" style="rounded=0;whiteSpace=wrap;html=1;" parent="1" vertex="1">
          <mxGeometry x="304" y="283" width="80" height="120" as="geometry" />
        </mxCell>
        <mxCell id="ViR2Tt4yyh8v6bLRr8B0-15" value="" style="whiteSpace=wrap;html=1;shape=mxgraph.basic.pointed_oval" parent="1" vertex="1">
          <mxGeometry x="624" y="153" width="20" height="60" as="geometry" />
        </mxCell>
        <mxCell id="ViR2Tt4yyh8v6bLRr8B0-16" value="" style="whiteSpace=wrap;html=1;shape=mxgraph.basic.pointed_oval" parent="1" vertex="1">
          <mxGeometry x="624" y="213" width="20" height="60" as="geometry" />
        </mxCell>
        <mxCell id="ViR2Tt4yyh8v6bLRr8B0-18" value="" style="endArrow=none;html=1;rounded=0;entryX=0.5;entryY=0;entryDx=0;entryDy=0;entryPerimeter=0;" parent="1" target="ViR2Tt4yyh8v6bLRr8B0-16" edge="1">
          <mxGeometry width="50" height="50" relative="1" as="geometry">
            <mxPoint x="664" y="213" as="sourcePoint" />
            <mxPoint x="634" y="223" as="targetPoint" />
          </mxGeometry>
        </mxCell>
        <mxCell id="ViR2Tt4yyh8v6bLRr8B0-19" value="" style="rounded=0;whiteSpace=wrap;html=1;" parent="1" vertex="1">
          <mxGeometry x="649" y="193" width="15" height="40" as="geometry" />
        </mxCell>
        <mxCell id="ViR2Tt4yyh8v6bLRr8B0-20" value="" style="whiteSpace=wrap;html=1;shape=mxgraph.basic.pointed_oval" parent="1" vertex="1">
          <mxGeometry x="25" y="153" width="20" height="60" as="geometry" />
        </mxCell>
        <mxCell id="ViR2Tt4yyh8v6bLRr8B0-21" value="" style="whiteSpace=wrap;html=1;shape=mxgraph.basic.pointed_oval" parent="1" vertex="1">
          <mxGeometry x="25" y="213" width="20" height="60" as="geometry" />
        </mxCell>
        <mxCell id="ViR2Tt4yyh8v6bLRr8B0-22" value="" style="endArrow=none;html=1;rounded=0;entryX=0.5;entryY=0;entryDx=0;entryDy=0;entryPerimeter=0;exitX=1;exitY=0.5;exitDx=0;exitDy=0;" parent="1" source="ViR2Tt4yyh8v6bLRr8B0-23" target="ViR2Tt4yyh8v6bLRr8B0-21" edge="1">
          <mxGeometry width="50" height="50" relative="1" as="geometry">
            <mxPoint x="5" y="213" as="sourcePoint" />
            <mxPoint x="-25" y="223" as="targetPoint" />
          </mxGeometry>
        </mxCell>
        <mxCell id="ViR2Tt4yyh8v6bLRr8B0-23" value="" style="rounded=0;whiteSpace=wrap;html=1;" parent="1" vertex="1">
          <mxGeometry x="6" y="193" width="14" height="40" as="geometry" />
        </mxCell>
        <mxCell id="ViR2Tt4yyh8v6bLRr8B0-27" value="" style="endArrow=none;html=1;rounded=0;entryX=1;entryY=0.5;entryDx=0;entryDy=0;exitX=0.5;exitY=0;exitDx=0;exitDy=0;shape=link;" parent="1" source="ViR2Tt4yyh8v6bLRr8B0-4" edge="1">
          <mxGeometry width="50" height="50" relative="1" as="geometry">
            <mxPoint x="354" y="323" as="sourcePoint" />
            <mxPoint x="444" y="73" as="targetPoint" />
            <Array as="points">
              <mxPoint x="544" y="73" />
            </Array>
          </mxGeometry>
        </mxCell>
        <mxCell id="ViR2Tt4yyh8v6bLRr8B0-28" value="" style="endArrow=none;html=1;rounded=0;entryX=0.5;entryY=1;entryDx=0;entryDy=0;exitX=0;exitY=0.5;exitDx=0;exitDy=0;shape=link;" parent="1" source="ViR2Tt4yyh8v6bLRr8B0-8" target="ViR2Tt4yyh8v6bLRr8B0-4" edge="1">
          <mxGeometry width="50" height="50" relative="1" as="geometry">
            <mxPoint x="554" y="163" as="sourcePoint" />
            <mxPoint x="454" y="83" as="targetPoint" />
            <Array as="points">
              <mxPoint x="544" y="373" />
            </Array>
          </mxGeometry>
        </mxCell>
        <mxCell id="ViR2Tt4yyh8v6bLRr8B0-30" value="" style="endArrow=none;html=1;rounded=0;exitX=1;exitY=0.75;exitDx=0;exitDy=0;entryX=0;entryY=0.5;entryDx=0;entryDy=0;shape=link;" parent="1" source="ViR2Tt4yyh8v6bLRr8B0-11" target="ViR2Tt4yyh8v6bLRr8B0-9" edge="1">
          <mxGeometry width="50" height="50" relative="1" as="geometry">
            <mxPoint x="154" y="83" as="sourcePoint" />
            <mxPoint x="374" y="83" as="targetPoint" />
          </mxGeometry>
        </mxCell>
        <mxCell id="ViR2Tt4yyh8v6bLRr8B0-31" value="" style="endArrow=none;html=1;rounded=0;exitX=0;exitY=0.5;exitDx=0;exitDy=0;entryX=0;entryY=0.75;entryDx=0;entryDy=0;shape=link;" parent="1" source="ViR2Tt4yyh8v6bLRr8B0-6" target="ViR2Tt4yyh8v6bLRr8B0-11" edge="1">
          <mxGeometry width="50" height="50" relative="1" as="geometry">
            <mxPoint x="397" y="383" as="sourcePoint" />
            <mxPoint x="307.0000000000002" y="373" as="targetPoint" />
          </mxGeometry>
        </mxCell>
        <mxCell id="ViR2Tt4yyh8v6bLRr8B0-32" value="" style="endArrow=none;html=1;rounded=0;exitX=0.5;exitY=1;exitDx=0;exitDy=0;entryX=0;entryY=0.5;entryDx=0;entryDy=0;shape=link;" parent="1" source="ViR2Tt4yyh8v6bLRr8B0-5" target="ViR2Tt4yyh8v6bLRr8B0-7" edge="1">
          <mxGeometry width="50" height="50" relative="1" as="geometry">
            <mxPoint x="268" y="383" as="sourcePoint" />
            <mxPoint x="428" y="383" as="targetPoint" />
            <Array as="points">
              <mxPoint x="125" y="373" />
            </Array>
          </mxGeometry>
        </mxCell>
        <mxCell id="ViR2Tt4yyh8v6bLRr8B0-33" value="" style="endArrow=none;html=1;rounded=0;entryX=0.5;entryY=0;entryDx=0;entryDy=0;exitX=0;exitY=0.5;exitDx=0;exitDy=0;shape=link;" parent="1" source="ViR2Tt4yyh8v6bLRr8B0-2" target="ViR2Tt4yyh8v6bLRr8B0-5" edge="1">
          <mxGeometry width="50" height="50" relative="1" as="geometry">
            <mxPoint x="118" y="43" as="sourcePoint" />
            <mxPoint x="188" y="383" as="targetPoint" />
            <Array as="points">
              <mxPoint x="125" y="73" />
            </Array>
          </mxGeometry>
        </mxCell>
        <mxCell id="ViR2Tt4yyh8v6bLRr8B0-34" value="" style="endArrow=none;html=1;rounded=0;entryX=0.963;entryY=0.304;entryDx=0;entryDy=0;entryPerimeter=0;exitX=0;exitY=0;exitDx=0;exitDy=0;" parent="1" source="ViR2Tt4yyh8v6bLRr8B0-2" target="ViR2Tt4yyh8v6bLRr8B0-2" edge="1">
          <mxGeometry width="50" height="50" relative="1" as="geometry">
            <mxPoint x="308" y="273" as="sourcePoint" />
            <mxPoint x="358" y="223" as="targetPoint" />
          </mxGeometry>
        </mxCell>
        <mxCell id="ViR2Tt4yyh8v6bLRr8B0-35" value="" style="endArrow=none;html=1;rounded=0;entryX=0.965;entryY=0.689;entryDx=0;entryDy=0;exitX=0;exitY=1;exitDx=0;exitDy=0;entryPerimeter=0;" parent="1" source="ViR2Tt4yyh8v6bLRr8B0-2" target="ViR2Tt4yyh8v6bLRr8B0-2" edge="1">
          <mxGeometry width="50" height="50" relative="1" as="geometry">
            <mxPoint x="288" y="33" as="sourcePoint" />
            <mxPoint x="260.6400000000001" y="61.24000000000001" as="targetPoint" />
          </mxGeometry>
        </mxCell>
        <mxCell id="ViR2Tt4yyh8v6bLRr8B0-47" value="" style="ellipse;whiteSpace=wrap;html=1;aspect=fixed;" parent="1" vertex="1">
          <mxGeometry x="408" y="33" width="80" height="80" as="geometry" />
        </mxCell>
        <mxCell id="ViR2Tt4yyh8v6bLRr8B0-48" value="" style="endArrow=none;html=1;rounded=0;entryX=0.963;entryY=0.304;entryDx=0;entryDy=0;entryPerimeter=0;exitX=0;exitY=0;exitDx=0;exitDy=0;" parent="1" source="ViR2Tt4yyh8v6bLRr8B0-47" target="ViR2Tt4yyh8v6bLRr8B0-47" edge="1">
          <mxGeometry width="50" height="50" relative="1" as="geometry">
            <mxPoint x="494" y="273" as="sourcePoint" />
            <mxPoint x="544" y="223" as="targetPoint" />
          </mxGeometry>
        </mxCell>
        <mxCell id="ViR2Tt4yyh8v6bLRr8B0-49" value="" style="endArrow=none;html=1;rounded=0;entryX=0.965;entryY=0.689;entryDx=0;entryDy=0;exitX=0;exitY=1;exitDx=0;exitDy=0;entryPerimeter=0;" parent="1" source="ViR2Tt4yyh8v6bLRr8B0-47" target="ViR2Tt4yyh8v6bLRr8B0-47" edge="1">
          <mxGeometry width="50" height="50" relative="1" as="geometry">
            <mxPoint x="474" y="33" as="sourcePoint" />
            <mxPoint x="446.6400000000001" y="61.24000000000001" as="targetPoint" />
          </mxGeometry>
        </mxCell>
        <mxCell id="ViR2Tt4yyh8v6bLRr8B0-55" value="" style="endArrow=none;html=1;rounded=0;" parent="1" edge="1">
          <mxGeometry width="50" height="50" relative="1" as="geometry">
            <mxPoint x="155" y="192.76999999999998" as="sourcePoint" />
            <mxPoint x="95" y="192.76999999999998" as="targetPoint" />
          </mxGeometry>
        </mxCell>
        <mxCell id="ViR2Tt4yyh8v6bLRr8B0-56" value="" style="endArrow=none;html=1;rounded=0;" parent="1" edge="1">
          <mxGeometry width="50" height="50" relative="1" as="geometry">
            <mxPoint x="155" y="202.76999999999998" as="sourcePoint" />
            <mxPoint x="95" y="202.76999999999998" as="targetPoint" />
          </mxGeometry>
        </mxCell>
        <mxCell id="ViR2Tt4yyh8v6bLRr8B0-57" value="" style="endArrow=none;html=1;rounded=0;" parent="1" edge="1">
          <mxGeometry width="50" height="50" relative="1" as="geometry">
            <mxPoint x="155" y="212.76999999999998" as="sourcePoint" />
            <mxPoint x="95" y="212.76999999999998" as="targetPoint" />
          </mxGeometry>
        </mxCell>
        <mxCell id="ViR2Tt4yyh8v6bLRr8B0-58" value="" style="endArrow=none;html=1;rounded=0;" parent="1" edge="1">
          <mxGeometry width="50" height="50" relative="1" as="geometry">
            <mxPoint x="155" y="222.76999999999998" as="sourcePoint" />
            <mxPoint x="95" y="222.76999999999998" as="targetPoint" />
          </mxGeometry>
        </mxCell>
        <mxCell id="ViR2Tt4yyh8v6bLRr8B0-59" value="" style="endArrow=none;html=1;rounded=0;" parent="1" edge="1">
          <mxGeometry width="50" height="50" relative="1" as="geometry">
            <mxPoint x="155" y="232.45999999999998" as="sourcePoint" />
            <mxPoint x="95" y="232.45999999999998" as="targetPoint" />
          </mxGeometry>
        </mxCell>
        <mxCell id="ViR2Tt4yyh8v6bLRr8B0-60" value="" style="endArrow=none;html=1;rounded=0;" parent="1" edge="1">
          <mxGeometry width="50" height="50" relative="1" as="geometry">
            <mxPoint x="155" y="242.45999999999998" as="sourcePoint" />
            <mxPoint x="95" y="242.45999999999998" as="targetPoint" />
          </mxGeometry>
        </mxCell>
        <mxCell id="ViR2Tt4yyh8v6bLRr8B0-61" value="" style="endArrow=none;html=1;rounded=0;" parent="1" edge="1">
          <mxGeometry width="50" height="50" relative="1" as="geometry">
            <mxPoint x="155" y="252.45999999999998" as="sourcePoint" />
            <mxPoint x="95" y="252.45999999999998" as="targetPoint" />
          </mxGeometry>
        </mxCell>
        <mxCell id="ViR2Tt4yyh8v6bLRr8B0-62" value="" style="endArrow=none;html=1;rounded=0;" parent="1" edge="1">
          <mxGeometry width="50" height="50" relative="1" as="geometry">
            <mxPoint x="155" y="262.46" as="sourcePoint" />
            <mxPoint x="95" y="262.46" as="targetPoint" />
          </mxGeometry>
        </mxCell>
        <mxCell id="ViR2Tt4yyh8v6bLRr8B0-63" value="" style="endArrow=none;html=1;rounded=0;" parent="1" edge="1">
          <mxGeometry width="50" height="50" relative="1" as="geometry">
            <mxPoint x="574" y="163" as="sourcePoint" />
            <mxPoint x="514" y="163" as="targetPoint" />
          </mxGeometry>
        </mxCell>
        <mxCell id="ViR2Tt4yyh8v6bLRr8B0-64" value="" style="endArrow=none;html=1;rounded=0;" parent="1" edge="1">
          <mxGeometry width="50" height="50" relative="1" as="geometry">
            <mxPoint x="574" y="173" as="sourcePoint" />
            <mxPoint x="514" y="173" as="targetPoint" />
          </mxGeometry>
        </mxCell>
        <mxCell id="ViR2Tt4yyh8v6bLRr8B0-65" value="" style="endArrow=none;html=1;rounded=0;" parent="1" edge="1">
          <mxGeometry width="50" height="50" relative="1" as="geometry">
            <mxPoint x="574" y="183" as="sourcePoint" />
            <mxPoint x="514" y="183" as="targetPoint" />
          </mxGeometry>
        </mxCell>
        <mxCell id="ViR2Tt4yyh8v6bLRr8B0-66" value="" style="endArrow=none;html=1;rounded=0;" parent="1" edge="1">
          <mxGeometry width="50" height="50" relative="1" as="geometry">
            <mxPoint x="574" y="193" as="sourcePoint" />
            <mxPoint x="514" y="193" as="targetPoint" />
          </mxGeometry>
        </mxCell>
        <mxCell id="ViR2Tt4yyh8v6bLRr8B0-67" value="" style="endArrow=none;html=1;rounded=0;" parent="1" edge="1">
          <mxGeometry width="50" height="50" relative="1" as="geometry">
            <mxPoint x="574" y="202.69000000000005" as="sourcePoint" />
            <mxPoint x="514" y="202.69000000000005" as="targetPoint" />
          </mxGeometry>
        </mxCell>
        <mxCell id="ViR2Tt4yyh8v6bLRr8B0-68" value="" style="endArrow=none;html=1;rounded=0;" parent="1" edge="1">
          <mxGeometry width="50" height="50" relative="1" as="geometry">
            <mxPoint x="574" y="212.69000000000005" as="sourcePoint" />
            <mxPoint x="514" y="212.69000000000005" as="targetPoint" />
          </mxGeometry>
        </mxCell>
        <mxCell id="ViR2Tt4yyh8v6bLRr8B0-69" value="" style="endArrow=none;html=1;rounded=0;" parent="1" edge="1">
          <mxGeometry width="50" height="50" relative="1" as="geometry">
            <mxPoint x="574" y="222.69000000000005" as="sourcePoint" />
            <mxPoint x="514" y="222.69000000000005" as="targetPoint" />
          </mxGeometry>
        </mxCell>
        <mxCell id="ViR2Tt4yyh8v6bLRr8B0-70" value="" style="endArrow=none;html=1;rounded=0;" parent="1" edge="1">
          <mxGeometry width="50" height="50" relative="1" as="geometry">
            <mxPoint x="574" y="232.69000000000005" as="sourcePoint" />
            <mxPoint x="514" y="232.69000000000005" as="targetPoint" />
          </mxGeometry>
        </mxCell>
        <mxCell id="ViR2Tt4yyh8v6bLRr8B0-71" value="" style="endArrow=none;html=1;rounded=0;" parent="1" edge="1">
          <mxGeometry width="50" height="50" relative="1" as="geometry">
            <mxPoint x="574" y="243.00000000000006" as="sourcePoint" />
            <mxPoint x="514" y="243.00000000000006" as="targetPoint" />
          </mxGeometry>
        </mxCell>
        <mxCell id="ViR2Tt4yyh8v6bLRr8B0-72" value="" style="endArrow=none;html=1;rounded=0;" parent="1" edge="1">
          <mxGeometry width="50" height="50" relative="1" as="geometry">
            <mxPoint x="574" y="253.00000000000006" as="sourcePoint" />
            <mxPoint x="514" y="253.00000000000006" as="targetPoint" />
          </mxGeometry>
        </mxCell>
        <mxCell id="ViR2Tt4yyh8v6bLRr8B0-73" value="" style="endArrow=none;html=1;rounded=0;" parent="1" edge="1">
          <mxGeometry width="50" height="50" relative="1" as="geometry">
            <mxPoint x="574" y="263.00000000000006" as="sourcePoint" />
            <mxPoint x="514" y="263.00000000000006" as="targetPoint" />
          </mxGeometry>
        </mxCell>
        <mxCell id="ViR2Tt4yyh8v6bLRr8B0-74" value="" style="endArrow=none;html=1;rounded=0;" parent="1" edge="1">
          <mxGeometry width="50" height="50" relative="1" as="geometry">
            <mxPoint x="155" y="162.76999999999998" as="sourcePoint" />
            <mxPoint x="95" y="162.76999999999998" as="targetPoint" />
          </mxGeometry>
        </mxCell>
        <mxCell id="ViR2Tt4yyh8v6bLRr8B0-75" value="" style="endArrow=none;html=1;rounded=0;" parent="1" edge="1">
          <mxGeometry width="50" height="50" relative="1" as="geometry">
            <mxPoint x="155" y="172.76999999999998" as="sourcePoint" />
            <mxPoint x="95" y="172.76999999999998" as="targetPoint" />
          </mxGeometry>
        </mxCell>
        <mxCell id="ViR2Tt4yyh8v6bLRr8B0-76" value="" style="endArrow=none;html=1;rounded=0;" parent="1" edge="1">
          <mxGeometry width="50" height="50" relative="1" as="geometry">
            <mxPoint x="155" y="182.76999999999998" as="sourcePoint" />
            <mxPoint x="95" y="182.76999999999998" as="targetPoint" />
          </mxGeometry>
        </mxCell>
        <mxCell id="ViR2Tt4yyh8v6bLRr8B0-77" value="" style="endArrow=none;html=1;rounded=0;" parent="1" edge="1">
          <mxGeometry width="50" height="50" relative="1" as="geometry">
            <mxPoint x="374" y="393" as="sourcePoint" />
            <mxPoint x="314" y="393" as="targetPoint" />
          </mxGeometry>
        </mxCell>
        <mxCell id="ViR2Tt4yyh8v6bLRr8B0-78" value="" style="endArrow=none;html=1;rounded=0;" parent="1" edge="1">
          <mxGeometry width="50" height="50" relative="1" as="geometry">
            <mxPoint x="314" y="393.53999999999996" as="sourcePoint" />
            <mxPoint x="314" y="353.00000000000006" as="targetPoint" />
          </mxGeometry>
        </mxCell>
        <mxCell id="ViR2Tt4yyh8v6bLRr8B0-80" value="" style="endArrow=none;html=1;rounded=0;" parent="1" edge="1">
          <mxGeometry width="50" height="50" relative="1" as="geometry">
            <mxPoint x="374" y="393.53999999999996" as="sourcePoint" />
            <mxPoint x="374" y="353" as="targetPoint" />
          </mxGeometry>
        </mxCell>
        <mxCell id="ViR2Tt4yyh8v6bLRr8B0-81" value="" style="curved=1;endArrow=none;html=1;rounded=0;anchorPointDirection=1;endFill=0;" parent="1" edge="1">
          <mxGeometry width="50" height="50" relative="1" as="geometry">
            <mxPoint x="314" y="363" as="sourcePoint" />
            <mxPoint x="374" y="363" as="targetPoint" />
            <Array as="points">
              <mxPoint x="334" y="373" />
              <mxPoint x="354" y="353" />
            </Array>
          </mxGeometry>
        </mxCell>
        <mxCell id="ViR2Tt4yyh8v6bLRr8B0-86" value="Compressor stage 1" style="text;html=1;strokeColor=none;fillColor=none;align=center;verticalAlign=middle;whiteSpace=wrap;rounded=0;" parent="1" vertex="1">
          <mxGeometry x="170" y="2" width="60" height="30" as="geometry" />
        </mxCell>
        <mxCell id="ViR2Tt4yyh8v6bLRr8B0-87" value="Compressor stage 2" style="text;html=1;strokeColor=none;fillColor=none;align=center;verticalAlign=middle;whiteSpace=wrap;rounded=0;" parent="1" vertex="1">
          <mxGeometry x="419" y="2" width="60" height="30" as="geometry" />
        </mxCell>
        <mxCell id="ViR2Tt4yyh8v6bLRr8B0-88" value="Condenser" style="text;html=1;strokeColor=none;fillColor=none;align=center;verticalAlign=middle;whiteSpace=wrap;rounded=0;" parent="1" vertex="1">
          <mxGeometry x="441" y="204" width="60" height="30" as="geometry" />
        </mxCell>
        <mxCell id="ViR2Tt4yyh8v6bLRr8B0-89" value="Evaporator" style="text;html=1;strokeColor=none;fillColor=none;align=center;verticalAlign=middle;whiteSpace=wrap;rounded=0;" parent="1" vertex="1">
          <mxGeometry x="173" y="201" width="60" height="30" as="geometry" />
        </mxCell>
        <mxCell id="ViR2Tt4yyh8v6bLRr8B0-90" value="Flash tank" style="text;html=1;strokeColor=none;fillColor=none;align=center;verticalAlign=middle;whiteSpace=wrap;rounded=0;" parent="1" vertex="1">
          <mxGeometry x="314" y="403" width="60" height="30" as="geometry" />
        </mxCell>
        <mxCell id="ViR2Tt4yyh8v6bLRr8B0-91" value="Subcooling throttle" style="text;html=1;strokeColor=none;fillColor=none;align=center;verticalAlign=middle;whiteSpace=wrap;rounded=0;" parent="1" vertex="1">
          <mxGeometry x="354" y="163" width="60" height="30" as="geometry" />
        </mxCell>
        <mxCell id="ViR2Tt4yyh8v6bLRr8B0-92" value="Expansion valve" style="text;html=1;strokeColor=none;fillColor=none;align=center;verticalAlign=middle;whiteSpace=wrap;rounded=0;" parent="1" vertex="1">
          <mxGeometry x="188" y="318" width="60" height="30" as="geometry" />
        </mxCell>
        <mxCell id="ViR2Tt4yyh8v6bLRr8B0-93" value="Condenser throttle valve" style="text;html=1;strokeColor=none;fillColor=none;align=center;verticalAlign=middle;whiteSpace=wrap;rounded=0;" parent="1" vertex="1">
          <mxGeometry x="434" y="323" width="60" height="30" as="geometry" />
        </mxCell>
        <mxCell id="ViR2Tt4yyh8v6bLRr8B0-94" value="Evaporator&lt;br&gt;fan" style="text;html=1;strokeColor=none;fillColor=none;align=center;verticalAlign=middle;whiteSpace=wrap;rounded=0;" parent="1" vertex="1">
          <mxGeometry x="2" y="120" width="60" height="30" as="geometry" />
        </mxCell>
        <mxCell id="ViR2Tt4yyh8v6bLRr8B0-95" value="Condenser&lt;br&gt;fan" style="text;html=1;strokeColor=none;fillColor=none;align=center;verticalAlign=middle;whiteSpace=wrap;rounded=0;" parent="1" vertex="1">
          <mxGeometry x="612" y="122" width="60" height="30" as="geometry" />
        </mxCell>
        <mxCell id="ViR2Tt4yyh8v6bLRr8B0-98" value="" style="curved=1;endArrow=none;html=1;rounded=0;anchorPointDirection=1;endFill=0;" parent="1" edge="1">
          <mxGeometry width="50" height="50" relative="1" as="geometry">
            <mxPoint x="55" y="188" as="sourcePoint" />
            <mxPoint x="80" y="188" as="targetPoint" />
            <Array as="points">
              <mxPoint x="65" y="193" />
              <mxPoint x="72" y="183" />
            </Array>
          </mxGeometry>
        </mxCell>
        <mxCell id="ViR2Tt4yyh8v6bLRr8B0-99" value="" style="curved=1;endArrow=none;html=1;rounded=0;anchorPointDirection=1;endFill=0;" parent="1" edge="1">
          <mxGeometry width="50" height="50" relative="1" as="geometry">
            <mxPoint x="55" y="207.9999999999999" as="sourcePoint" />
            <mxPoint x="80" y="207.9999999999999" as="targetPoint" />
            <Array as="points">
              <mxPoint x="65" y="213" />
              <mxPoint x="72" y="203" />
            </Array>
          </mxGeometry>
        </mxCell>
        <mxCell id="ViR2Tt4yyh8v6bLRr8B0-100" value="" style="curved=1;endArrow=none;html=1;rounded=0;anchorPointDirection=1;endFill=0;" parent="1" edge="1">
          <mxGeometry width="50" height="50" relative="1" as="geometry">
            <mxPoint x="55" y="227.9999999999999" as="sourcePoint" />
            <mxPoint x="80" y="227.9999999999999" as="targetPoint" />
            <Array as="points">
              <mxPoint x="65" y="233" />
              <mxPoint x="72" y="223" />
            </Array>
          </mxGeometry>
        </mxCell>
        <mxCell id="ViR2Tt4yyh8v6bLRr8B0-101" value="" style="curved=1;endArrow=none;html=1;rounded=0;anchorPointDirection=1;endFill=0;" parent="1" edge="1">
          <mxGeometry width="50" height="50" relative="1" as="geometry">
            <mxPoint x="55" y="247.9999999999999" as="sourcePoint" />
            <mxPoint x="80" y="247.9999999999999" as="targetPoint" />
            <Array as="points">
              <mxPoint x="65" y="253" />
              <mxPoint x="72" y="243" />
            </Array>
          </mxGeometry>
        </mxCell>
        <mxCell id="ViR2Tt4yyh8v6bLRr8B0-102" value="" style="curved=1;endArrow=none;html=1;rounded=0;anchorPointDirection=1;endFill=0;" parent="1" edge="1">
          <mxGeometry width="50" height="50" relative="1" as="geometry">
            <mxPoint x="55" y="167.9999999999999" as="sourcePoint" />
            <mxPoint x="80" y="167.9999999999999" as="targetPoint" />
            <Array as="points">
              <mxPoint x="65" y="173" />
              <mxPoint x="72" y="163" />
            </Array>
          </mxGeometry>
        </mxCell>
        <mxCell id="ViR2Tt4yyh8v6bLRr8B0-108" value="" style="curved=1;endArrow=none;html=1;rounded=0;anchorPointDirection=1;endFill=0;" parent="1" edge="1">
          <mxGeometry width="50" height="50" relative="1" as="geometry">
            <mxPoint x="589" y="167.9999999999999" as="sourcePoint" />
            <mxPoint x="614" y="167.9999999999999" as="targetPoint" />
            <Array as="points">
              <mxPoint x="599" y="173" />
              <mxPoint x="606" y="163" />
            </Array>
          </mxGeometry>
        </mxCell>
        <mxCell id="ViR2Tt4yyh8v6bLRr8B0-110" value="" style="curved=1;endArrow=none;html=1;rounded=0;anchorPointDirection=1;endFill=0;" parent="1" edge="1">
          <mxGeometry width="50" height="50" relative="1" as="geometry">
            <mxPoint x="589" y="182.9999999999999" as="sourcePoint" />
            <mxPoint x="614" y="182.9999999999999" as="targetPoint" />
            <Array as="points">
              <mxPoint x="599" y="188" />
              <mxPoint x="606" y="178" />
            </Array>
          </mxGeometry>
        </mxCell>
        <mxCell id="ViR2Tt4yyh8v6bLRr8B0-111" value="" style="curved=1;endArrow=none;html=1;rounded=0;anchorPointDirection=1;endFill=0;" parent="1" edge="1">
          <mxGeometry width="50" height="50" relative="1" as="geometry">
            <mxPoint x="589" y="197.9999999999999" as="sourcePoint" />
            <mxPoint x="614" y="197.9999999999999" as="targetPoint" />
            <Array as="points">
              <mxPoint x="599" y="203" />
              <mxPoint x="606" y="193" />
            </Array>
          </mxGeometry>
        </mxCell>
        <mxCell id="ViR2Tt4yyh8v6bLRr8B0-112" value="" style="curved=1;endArrow=none;html=1;rounded=0;anchorPointDirection=1;endFill=0;" parent="1" edge="1">
          <mxGeometry width="50" height="50" relative="1" as="geometry">
            <mxPoint x="589" y="212.9999999999999" as="sourcePoint" />
            <mxPoint x="614" y="212.9999999999999" as="targetPoint" />
            <Array as="points">
              <mxPoint x="599" y="218" />
              <mxPoint x="606" y="208" />
            </Array>
          </mxGeometry>
        </mxCell>
        <mxCell id="ViR2Tt4yyh8v6bLRr8B0-113" value="" style="curved=1;endArrow=none;html=1;rounded=0;anchorPointDirection=1;endFill=0;" parent="1" edge="1">
          <mxGeometry width="50" height="50" relative="1" as="geometry">
            <mxPoint x="589" y="227.9999999999999" as="sourcePoint" />
            <mxPoint x="614" y="227.9999999999999" as="targetPoint" />
            <Array as="points">
              <mxPoint x="599" y="233" />
              <mxPoint x="606" y="223" />
            </Array>
          </mxGeometry>
        </mxCell>
        <mxCell id="ViR2Tt4yyh8v6bLRr8B0-114" value="" style="curved=1;endArrow=none;html=1;rounded=0;anchorPointDirection=1;endFill=0;" parent="1" edge="1">
          <mxGeometry width="50" height="50" relative="1" as="geometry">
            <mxPoint x="589" y="242.9999999999999" as="sourcePoint" />
            <mxPoint x="614" y="242.9999999999999" as="targetPoint" />
            <Array as="points">
              <mxPoint x="599" y="248" />
              <mxPoint x="606" y="238" />
            </Array>
          </mxGeometry>
        </mxCell>
        <mxCell id="ViR2Tt4yyh8v6bLRr8B0-115" value="" style="endArrow=none;html=1;rounded=0;shape=link;entryX=0;entryY=0.5;entryDx=0;entryDy=0;" parent="1" target="ViR2Tt4yyh8v6bLRr8B0-47" edge="1">
          <mxGeometry width="50" height="50" relative="1" as="geometry">
            <mxPoint x="346" y="73" as="sourcePoint" />
            <mxPoint x="324" y="83" as="targetPoint" />
          </mxGeometry>
        </mxCell>
        <mxCell id="BIku93GV1AMmx44TNClJ-4" value="1" style="ellipse;whiteSpace=wrap;html=1;aspect=fixed;fontSize=15;" parent="1" vertex="1">
          <mxGeometry x="108" y="40" width="25" height="25" as="geometry" />
        </mxCell>
        <mxCell id="BIku93GV1AMmx44TNClJ-5" value="2" style="ellipse;whiteSpace=wrap;html=1;aspect=fixed;fontSize=15;" parent="1" vertex="1">
          <mxGeometry x="282" y="40" width="25" height="25" as="geometry" />
        </mxCell>
        <mxCell id="BIku93GV1AMmx44TNClJ-6" value="5" style="ellipse;whiteSpace=wrap;html=1;aspect=fixed;fontSize=15;" parent="1" vertex="1">
          <mxGeometry x="510" y="283" width="25" height="25" as="geometry" />
        </mxCell>
        <mxCell id="BIku93GV1AMmx44TNClJ-7" value="9" style="ellipse;whiteSpace=wrap;html=1;aspect=fixed;fontSize=15;" parent="1" vertex="1">
          <mxGeometry x="356" y="223" width="25" height="25" as="geometry" />
        </mxCell>
        <mxCell id="BIku93GV1AMmx44TNClJ-8" value="7" style="ellipse;whiteSpace=wrap;html=1;aspect=fixed;fontSize=15;" parent="1" vertex="1">
          <mxGeometry x="269" y="336" width="25" height="25" as="geometry" />
        </mxCell>
        <mxCell id="BIku93GV1AMmx44TNClJ-10" value="3" style="ellipse;whiteSpace=wrap;html=1;aspect=fixed;fontSize=15;" parent="1" vertex="1">
          <mxGeometry x="375" y="40" width="25" height="25" as="geometry" />
        </mxCell>
        <mxCell id="BIku93GV1AMmx44TNClJ-11" value="8" style="ellipse;whiteSpace=wrap;html=1;aspect=fixed;fontSize=15;" parent="1" vertex="1">
          <mxGeometry x="101" y="379" width="25" height="25" as="geometry" />
        </mxCell>
        <mxCell id="BIku93GV1AMmx44TNClJ-13" value="4" style="ellipse;whiteSpace=wrap;html=1;aspect=fixed;fontSize=15;" parent="1" vertex="1">
          <mxGeometry x="513" y="37" width="25" height="25" as="geometry" />
        </mxCell>
        <mxCell id="BIku93GV1AMmx44TNClJ-15" value="6" style="ellipse;whiteSpace=wrap;html=1;aspect=fixed;fontSize=15;" parent="1" vertex="1">
          <mxGeometry x="396" y="336" width="25" height="25" as="geometry" />
        </mxCell>
        <mxCell id="ViR2Tt4yyh8v6bLRr8B0-12" value="" style="triangle;whiteSpace=wrap;html=1;rotation=-180;direction=south;" parent="1" vertex="1">
          <mxGeometry x="324" y="174" width="40" height="40" as="geometry" />
        </mxCell>
        <mxCell id="cNQ2fKvkNMRmwMuR_fTF-2" value="" style="group;direction=west;" vertex="1" connectable="0" parent="1">
          <mxGeometry x="324" y="133" width="80" height="40" as="geometry" />
        </mxCell>
        <mxCell id="ViR2Tt4yyh8v6bLRr8B0-13" value="" style="triangle;whiteSpace=wrap;html=1;direction=south;" parent="cNQ2fKvkNMRmwMuR_fTF-2" vertex="1">
          <mxGeometry width="40" height="40" as="geometry" />
        </mxCell>
        <mxCell id="cNQ2fKvkNMRmwMuR_fTF-5" value="" style="endArrow=none;html=1;rounded=0;exitX=0;exitY=0.5;exitDx=0;exitDy=0;shape=link;entryX=0.5;entryY=0;entryDx=0;entryDy=0;" edge="1" parent="1" source="ViR2Tt4yyh8v6bLRr8B0-12" target="ViR2Tt4yyh8v6bLRr8B0-11">
          <mxGeometry width="50" height="50" relative="1" as="geometry">
            <mxPoint x="305" y="250" as="sourcePoint" />
            <mxPoint x="353" y="252" as="targetPoint" />
          </mxGeometry>
        </mxCell>
        <mxCell id="cNQ2fKvkNMRmwMuR_fTF-6" value="" style="endArrow=none;html=1;rounded=0;shape=link;entryX=0;entryY=0.5;entryDx=0;entryDy=0;" edge="1" parent="1" target="ViR2Tt4yyh8v6bLRr8B0-13">
          <mxGeometry width="50" height="50" relative="1" as="geometry">
            <mxPoint x="344" y="75" as="sourcePoint" />
            <mxPoint x="342" y="113" as="targetPoint" />
          </mxGeometry>
        </mxCell>
        <mxCell id="ViR2Tt4yyh8v6bLRr8B0-24" value="" style="endArrow=none;html=1;rounded=0;exitX=1;exitY=0.5;exitDx=0;exitDy=0;shape=link;" parent="1" source="ViR2Tt4yyh8v6bLRr8B0-2" edge="1">
          <mxGeometry width="50" height="50" relative="1" as="geometry">
            <mxPoint x="522" y="283" as="sourcePoint" />
            <mxPoint x="342" y="73" as="targetPoint" />
          </mxGeometry>
        </mxCell>
        <mxCell id="cNQ2fKvkNMRmwMuR_fTF-8" value="" style="endArrow=none;html=1;rounded=0;curved=1;" edge="1" parent="1">
          <mxGeometry width="50" height="50" relative="1" as="geometry">
            <mxPoint x="342" y="71" as="sourcePoint" />
            <mxPoint x="346" y="71" as="targetPoint" />
          </mxGeometry>
        </mxCell>
        <mxCell id="cNQ2fKvkNMRmwMuR_fTF-9" value="" style="ellipse;whiteSpace=wrap;html=1;aspect=fixed;fontSize=15;strokeWidth=0.11;" vertex="1" parent="1">
          <mxGeometry x="319.75" y="372" width="3" height="3" as="geometry" />
        </mxCell>
        <mxCell id="cNQ2fKvkNMRmwMuR_fTF-10" value="" style="ellipse;whiteSpace=wrap;html=1;aspect=fixed;fontSize=15;strokeWidth=0.11;" vertex="1" parent="1">
          <mxGeometry x="326.75" y="372" width="3" height="3" as="geometry" />
        </mxCell>
        <mxCell id="cNQ2fKvkNMRmwMuR_fTF-12" value="" style="ellipse;whiteSpace=wrap;html=1;aspect=fixed;fontSize=15;strokeWidth=0.11;" vertex="1" parent="1">
          <mxGeometry x="333.75" y="372" width="3" height="3" as="geometry" />
        </mxCell>
        <mxCell id="cNQ2fKvkNMRmwMuR_fTF-13" value="" style="ellipse;whiteSpace=wrap;html=1;aspect=fixed;fontSize=15;strokeWidth=0.11;" vertex="1" parent="1">
          <mxGeometry x="340.75" y="372" width="3" height="3" as="geometry" />
        </mxCell>
        <mxCell id="cNQ2fKvkNMRmwMuR_fTF-14" value="" style="ellipse;whiteSpace=wrap;html=1;aspect=fixed;fontSize=15;strokeWidth=0.11;" vertex="1" parent="1">
          <mxGeometry x="347.75" y="372" width="3" height="3" as="geometry" />
        </mxCell>
        <mxCell id="cNQ2fKvkNMRmwMuR_fTF-15" value="" style="ellipse;whiteSpace=wrap;html=1;aspect=fixed;fontSize=15;strokeWidth=0.11;" vertex="1" parent="1">
          <mxGeometry x="354.75" y="372" width="3" height="3" as="geometry" />
        </mxCell>
        <mxCell id="cNQ2fKvkNMRmwMuR_fTF-16" value="" style="ellipse;whiteSpace=wrap;html=1;aspect=fixed;fontSize=15;strokeWidth=0.11;" vertex="1" parent="1">
          <mxGeometry x="361.75" y="372" width="3" height="3" as="geometry" />
        </mxCell>
        <mxCell id="cNQ2fKvkNMRmwMuR_fTF-17" value="" style="ellipse;whiteSpace=wrap;html=1;aspect=fixed;fontSize=15;strokeWidth=0.11;" vertex="1" parent="1">
          <mxGeometry x="368.75" y="372" width="3" height="3" as="geometry" />
        </mxCell>
        <mxCell id="cNQ2fKvkNMRmwMuR_fTF-18" value="" style="ellipse;whiteSpace=wrap;html=1;aspect=fixed;fontSize=15;strokeWidth=0.11;" vertex="1" parent="1">
          <mxGeometry x="316.25" y="377" width="3" height="3" as="geometry" />
        </mxCell>
        <mxCell id="cNQ2fKvkNMRmwMuR_fTF-19" value="" style="ellipse;whiteSpace=wrap;html=1;aspect=fixed;fontSize=15;strokeWidth=0.11;" vertex="1" parent="1">
          <mxGeometry x="323.25" y="377" width="3" height="3" as="geometry" />
        </mxCell>
        <mxCell id="cNQ2fKvkNMRmwMuR_fTF-20" value="" style="ellipse;whiteSpace=wrap;html=1;aspect=fixed;fontSize=15;strokeWidth=0.11;" vertex="1" parent="1">
          <mxGeometry x="330.25" y="377" width="3" height="3" as="geometry" />
        </mxCell>
        <mxCell id="cNQ2fKvkNMRmwMuR_fTF-21" value="" style="ellipse;whiteSpace=wrap;html=1;aspect=fixed;fontSize=15;strokeWidth=0.11;" vertex="1" parent="1">
          <mxGeometry x="337.25" y="377" width="3" height="3" as="geometry" />
        </mxCell>
        <mxCell id="cNQ2fKvkNMRmwMuR_fTF-22" value="" style="ellipse;whiteSpace=wrap;html=1;aspect=fixed;fontSize=15;strokeWidth=0.11;" vertex="1" parent="1">
          <mxGeometry x="344.25" y="377" width="3" height="3" as="geometry" />
        </mxCell>
        <mxCell id="cNQ2fKvkNMRmwMuR_fTF-23" value="" style="ellipse;whiteSpace=wrap;html=1;aspect=fixed;fontSize=15;strokeWidth=0.11;" vertex="1" parent="1">
          <mxGeometry x="351.25" y="377" width="3" height="3" as="geometry" />
        </mxCell>
        <mxCell id="cNQ2fKvkNMRmwMuR_fTF-24" value="" style="ellipse;whiteSpace=wrap;html=1;aspect=fixed;fontSize=15;strokeWidth=0.11;" vertex="1" parent="1">
          <mxGeometry x="358.25" y="377" width="3" height="3" as="geometry" />
        </mxCell>
        <mxCell id="cNQ2fKvkNMRmwMuR_fTF-25" value="" style="ellipse;whiteSpace=wrap;html=1;aspect=fixed;fontSize=15;strokeWidth=0.11;" vertex="1" parent="1">
          <mxGeometry x="365.25" y="377" width="3" height="3" as="geometry" />
        </mxCell>
        <mxCell id="cNQ2fKvkNMRmwMuR_fTF-26" value="" style="ellipse;whiteSpace=wrap;html=1;aspect=fixed;fontSize=15;strokeWidth=0.11;" vertex="1" parent="1">
          <mxGeometry x="319.75" y="382" width="3" height="3" as="geometry" />
        </mxCell>
        <mxCell id="cNQ2fKvkNMRmwMuR_fTF-27" value="" style="ellipse;whiteSpace=wrap;html=1;aspect=fixed;fontSize=15;strokeWidth=0.11;" vertex="1" parent="1">
          <mxGeometry x="326.75" y="382" width="3" height="3" as="geometry" />
        </mxCell>
        <mxCell id="cNQ2fKvkNMRmwMuR_fTF-28" value="" style="ellipse;whiteSpace=wrap;html=1;aspect=fixed;fontSize=15;strokeWidth=0.11;" vertex="1" parent="1">
          <mxGeometry x="333.75" y="382" width="3" height="3" as="geometry" />
        </mxCell>
        <mxCell id="cNQ2fKvkNMRmwMuR_fTF-29" value="" style="ellipse;whiteSpace=wrap;html=1;aspect=fixed;fontSize=15;strokeWidth=0.11;" vertex="1" parent="1">
          <mxGeometry x="340.75" y="382" width="3" height="3" as="geometry" />
        </mxCell>
        <mxCell id="cNQ2fKvkNMRmwMuR_fTF-30" value="" style="ellipse;whiteSpace=wrap;html=1;aspect=fixed;fontSize=15;strokeWidth=0.11;" vertex="1" parent="1">
          <mxGeometry x="347.75" y="382" width="3" height="3" as="geometry" />
        </mxCell>
        <mxCell id="cNQ2fKvkNMRmwMuR_fTF-31" value="" style="ellipse;whiteSpace=wrap;html=1;aspect=fixed;fontSize=15;strokeWidth=0.11;" vertex="1" parent="1">
          <mxGeometry x="354.75" y="382" width="3" height="3" as="geometry" />
        </mxCell>
        <mxCell id="cNQ2fKvkNMRmwMuR_fTF-32" value="" style="ellipse;whiteSpace=wrap;html=1;aspect=fixed;fontSize=15;strokeWidth=0.11;" vertex="1" parent="1">
          <mxGeometry x="361.75" y="382" width="3" height="3" as="geometry" />
        </mxCell>
        <mxCell id="cNQ2fKvkNMRmwMuR_fTF-33" value="" style="ellipse;whiteSpace=wrap;html=1;aspect=fixed;fontSize=15;strokeWidth=0.11;" vertex="1" parent="1">
          <mxGeometry x="368.75" y="382" width="3" height="3" as="geometry" />
        </mxCell>
        <mxCell id="cNQ2fKvkNMRmwMuR_fTF-34" value="" style="ellipse;whiteSpace=wrap;html=1;aspect=fixed;fontSize=15;strokeWidth=0.11;" vertex="1" parent="1">
          <mxGeometry x="316.25" y="387" width="3" height="3" as="geometry" />
        </mxCell>
        <mxCell id="cNQ2fKvkNMRmwMuR_fTF-35" value="" style="ellipse;whiteSpace=wrap;html=1;aspect=fixed;fontSize=15;strokeWidth=0.11;" vertex="1" parent="1">
          <mxGeometry x="323.25" y="387" width="3" height="3" as="geometry" />
        </mxCell>
        <mxCell id="cNQ2fKvkNMRmwMuR_fTF-36" value="" style="ellipse;whiteSpace=wrap;html=1;aspect=fixed;fontSize=15;strokeWidth=0.11;" vertex="1" parent="1">
          <mxGeometry x="330.25" y="387" width="3" height="3" as="geometry" />
        </mxCell>
        <mxCell id="cNQ2fKvkNMRmwMuR_fTF-37" value="" style="ellipse;whiteSpace=wrap;html=1;aspect=fixed;fontSize=15;strokeWidth=0.11;" vertex="1" parent="1">
          <mxGeometry x="337.25" y="387" width="3" height="3" as="geometry" />
        </mxCell>
        <mxCell id="cNQ2fKvkNMRmwMuR_fTF-38" value="" style="ellipse;whiteSpace=wrap;html=1;aspect=fixed;fontSize=15;strokeWidth=0.11;" vertex="1" parent="1">
          <mxGeometry x="344.25" y="387" width="3" height="3" as="geometry" />
        </mxCell>
        <mxCell id="cNQ2fKvkNMRmwMuR_fTF-39" value="" style="ellipse;whiteSpace=wrap;html=1;aspect=fixed;fontSize=15;strokeWidth=0.11;" vertex="1" parent="1">
          <mxGeometry x="351.25" y="387" width="3" height="3" as="geometry" />
        </mxCell>
        <mxCell id="cNQ2fKvkNMRmwMuR_fTF-40" value="" style="ellipse;whiteSpace=wrap;html=1;aspect=fixed;fontSize=15;strokeWidth=0.11;" vertex="1" parent="1">
          <mxGeometry x="358.25" y="387" width="3" height="3" as="geometry" />
        </mxCell>
        <mxCell id="cNQ2fKvkNMRmwMuR_fTF-41" value="" style="ellipse;whiteSpace=wrap;html=1;aspect=fixed;fontSize=15;strokeWidth=0.11;" vertex="1" parent="1">
          <mxGeometry x="365.25" y="387" width="3" height="3" as="geometry" />
        </mxCell>
        <mxCell id="cNQ2fKvkNMRmwMuR_fTF-48" value="" style="ellipse;whiteSpace=wrap;html=1;aspect=fixed;fontSize=15;strokeWidth=0.11;" vertex="1" parent="1">
          <mxGeometry x="344.25" y="366" width="3" height="3" as="geometry" />
        </mxCell>
        <mxCell id="cNQ2fKvkNMRmwMuR_fTF-49" value="" style="ellipse;whiteSpace=wrap;html=1;aspect=fixed;fontSize=15;strokeWidth=0.11;" vertex="1" parent="1">
          <mxGeometry x="351.25" y="366" width="3" height="3" as="geometry" />
        </mxCell>
        <mxCell id="cNQ2fKvkNMRmwMuR_fTF-50" value="" style="ellipse;whiteSpace=wrap;html=1;aspect=fixed;fontSize=15;strokeWidth=0.11;" vertex="1" parent="1">
          <mxGeometry x="358.25" y="366" width="3" height="3" as="geometry" />
        </mxCell>
        <mxCell id="cNQ2fKvkNMRmwMuR_fTF-51" value="" style="ellipse;whiteSpace=wrap;html=1;aspect=fixed;fontSize=15;strokeWidth=0.11;" vertex="1" parent="1">
          <mxGeometry x="365.25" y="366" width="3" height="3" as="geometry" />
        </mxCell>
        <mxCell id="cNQ2fKvkNMRmwMuR_fTF-72" value="" style="group;rotation=90;" vertex="1" connectable="0" parent="1">
          <mxGeometry x="321.5" y="294.5" width="15" height="53.5" as="geometry" />
        </mxCell>
        <mxCell id="cNQ2fKvkNMRmwMuR_fTF-65" value="" style="curved=1;endArrow=none;html=1;rounded=0;anchorPointDirection=1;endFill=0;startArrow=classicThin;startFill=1;" edge="1" parent="cNQ2fKvkNMRmwMuR_fTF-72">
          <mxGeometry width="50" height="50" relative="1" as="geometry">
            <mxPoint x="49.5" y="15.00535714285714" as="sourcePoint" />
            <mxPoint x="49.5" y="53.21964285714285" as="targetPoint" />
            <Array as="points">
              <mxPoint x="45.214285714285715" y="30.291071428571428" />
              <mxPoint x="53.78571428571429" y="40.99107142857142" />
            </Array>
          </mxGeometry>
        </mxCell>
        <mxCell id="cNQ2fKvkNMRmwMuR_fTF-66" value="" style="curved=1;endArrow=none;html=1;rounded=0;anchorPointDirection=1;endFill=0;startArrow=classicThin;startFill=1;" edge="1" parent="cNQ2fKvkNMRmwMuR_fTF-72">
          <mxGeometry width="50" height="50" relative="1" as="geometry">
            <mxPoint x="36.642857142857146" y="15.00535714285714" as="sourcePoint" />
            <mxPoint x="36.642857142857146" y="53.21964285714285" as="targetPoint" />
            <Array as="points">
              <mxPoint x="32.357142857142854" y="30.291071428571428" />
              <mxPoint x="40.92857142857143" y="40.99107142857142" />
            </Array>
          </mxGeometry>
        </mxCell>
        <mxCell id="cNQ2fKvkNMRmwMuR_fTF-67" value="" style="curved=1;endArrow=none;html=1;rounded=0;anchorPointDirection=1;endFill=0;startArrow=classicThin;startFill=1;" edge="1" parent="cNQ2fKvkNMRmwMuR_fTF-72">
          <mxGeometry width="50" height="50" relative="1" as="geometry">
            <mxPoint x="21.642857142857142" y="15.00535714285714" as="sourcePoint" />
            <mxPoint x="21.642857142857142" y="53.21964285714285" as="targetPoint" />
            <Array as="points">
              <mxPoint x="17.357142857142858" y="30.291071428571428" />
              <mxPoint x="25.928571428571427" y="40.99107142857142" />
            </Array>
          </mxGeometry>
        </mxCell>
        <mxCell id="cNQ2fKvkNMRmwMuR_fTF-68" value="" style="curved=1;endArrow=none;html=1;rounded=0;anchorPointDirection=1;endFill=0;startArrow=classicThin;startFill=1;" edge="1" parent="cNQ2fKvkNMRmwMuR_fTF-72">
          <mxGeometry width="50" height="50" relative="1" as="geometry">
            <mxPoint x="8.785714285714285" y="15.00535714285714" as="sourcePoint" />
            <mxPoint x="8.785714285714285" y="53.21964285714285" as="targetPoint" />
            <Array as="points">
              <mxPoint x="4.5" y="30.291071428571428" />
              <mxPoint x="13.071428571428573" y="40.99107142857142" />
            </Array>
          </mxGeometry>
        </mxCell>
        <mxCell id="cNQ2fKvkNMRmwMuR_fTF-69" value="" style="curved=1;endArrow=none;html=1;rounded=0;anchorPointDirection=1;endFill=0;startArrow=classicThin;startFill=1;" edge="1" parent="cNQ2fKvkNMRmwMuR_fTF-72">
          <mxGeometry width="50" height="50" relative="1" as="geometry">
            <mxPoint x="-4.071428571428573" y="15.00535714285714" as="sourcePoint" />
            <mxPoint x="-4.071428571428573" y="53.21964285714285" as="targetPoint" />
            <Array as="points">
              <mxPoint x="-8.35714285714286" y="30.291071428571428" />
              <mxPoint x="0.21428571428571352" y="40.99107142857142" />
            </Array>
          </mxGeometry>
        </mxCell>
      </root>
    </mxGraphModel>
  </diagram>
</mxfile>
